<svg xmlns="http://www.w3.org/2000/svg" viewBox="-286.426 244.425 394 74"><g opacity=".15"><path d="M-118.8 266.875c-4.109 0-7.741.298-10.897.893-.536.119-.894.417-.953.953l-.774 4.764c-.119.655.119 1.012.714 1.012h10.719c3.871 0 5.419 1.251 4.942 4.109l-.357 2.144h-7.562c-4.228 0-7.444.655-9.588 2.024-2.084 1.37-3.453 3.93-4.109 7.742-.714 4.585-.119 7.264 2.204 8.694 2.382 1.369 4.883 1.607 9.885 1.607 5.359 0 9.944-.416 13.755-1.25.894-.298 1.429-.953 1.608-1.846l3.275-20.604c.536-3.513-.059-6.074-1.846-7.741-1.786-1.666-5.478-2.501-11.016-2.501m1.489 26.202c-1.549.417-3.573.596-6.074.596-3.811 0-4.943-.834-4.466-3.633.416-2.56 1.667-3.573 4.704-3.573h6.907l-1.071 6.61zm-68.064-25.546c-1.846-.417-4.466-.655-7.801-.655-3.156 0-5.18.238-7.562 1.37-2.382 1.012-3.99 3.453-4.526 7.026l-3.87 24.296c-.12.655.119.953.714.953h7.086c.655 0 .953-.298 1.013-.953l3.513-22.033c.417-2.441 1.489-3.037 4.645-3.037h5.597c.655 0 1.072-.298 1.191-.893l.774-4.883c.06-.596-.178-1.012-.774-1.191m-26.974 1.37c-2.144-1.43-5.121-2.025-10.302-2.025-6.193 0-10.48 1.131-12.803 3.394-2.322 2.204-4.049 6.729-5.121 13.577s-.774 11.374.834 13.637c1.608 2.203 5.538 3.334 11.671 3.334 6.372 0 9.945-.774 12.743-3.394 2.799-2.68 4.05-6.491 5.181-13.577 1.191-8.217 1.072-12.506-2.203-14.946m-6.67 14.945c-.595 3.811-1.369 6.312-2.381 7.563-.953 1.191-2.799 1.786-5.479 1.786s-4.287-.595-4.883-1.846c-.595-1.25-.595-3.751.06-7.503.595-3.811 1.369-6.312 2.322-7.503 1.012-1.25 2.799-1.846 5.478-1.846 2.68 0 4.347.655 4.943 1.906.595 1.251.595 3.692-.06 7.443m137.555-10.242l.774-4.883c.06-.595-.178-1.012-.774-1.191-1.846-.417-4.466-.655-7.801-.655-3.156 0-5.18.238-7.562 1.37-2.382 1.012-3.99 3.453-4.526 7.026l-3.87 24.296c-.12.655.119.953.714.953h7.086c.655 0 .953-.298 1.013-.953l3.513-22.033c.417-2.441 1.489-3.037 4.645-3.037h5.597c.655 0 1.072-.298 1.191-.893m-51.688-6.431h-7.562c-.357 0-.655.297-.834.833l-7.92 24.296c-.297.774-.714 1.131-1.191 1.131-.655 0-.714-.119-.774-1.131l-1.846-23.283c-.059-.536-.298-.834-.774-.834h-6.967c-.536 0-.893.298-1.072.834l-9.23 23.283c-.417 1.012-.595 1.131-1.131 1.131s-.774-.178-.774-1.131l-.239-24.296c-.059-.536-.238-.833-.595-.833h-7.563c-.536 0-.833.297-.833.833l.833 26.857c.12 2.56.655 4.227 1.549 4.942.952.655 2.858 1.012 5.716 1.012 7.265-.357 7.206-.357 9.707-5.954l4.942-13.22.834 13.22c.178 2.858.297 3.989 1.488 4.942 1.191.953 2.68 1.012 6.313 1.012 2.858 0 4.882-.357 6.014-1.072 1.191-.714 2.203-2.322 3.096-4.882l9.409-26.857c.179-.535-.06-.832-.596-.833m203.354-.298c-2.441 0-4.525.119-6.371.298l1.846-11.791c.059-.655-.179-.952-.775-.952h-7.026c-.596 0-.953.297-1.012.952l-7.027 44.185c-.06.655.179.953.714.953h7.146c.655 0 .953-.298 1.013-.953l3.989-25.07h5.36c5.478 0 6.371.477 5.002 8.932L70.5 299.568c-.06.655.179.953.715.953h7.086c.595 0 .953-.298 1.072-.953l2.917-18.4c1.847-12.148-.714-14.292-12.088-14.293M-48.713 254.43h-7.086c-.536 0-.893.297-1.012.952l-1.846 11.85c-2.204-.238-4.645-.357-7.325-.357-5.359 0-9.17 1.191-11.433 3.573-2.203 2.322-3.87 6.848-4.883 13.458-2.084 13.398.179 16.852 12.743 16.911 3.99 0 8.456-.357 13.339-1.131.834-.119 1.31-.596 1.429-1.489l6.848-42.815c.06-.654-.238-.951-.774-.952m-14.053 38.349c-1.667.298-3.573.417-5.717.417-2.858 0-4.585-.655-5.18-2.024-.596-1.37-.536-3.812.178-7.325.655-3.93 1.429-6.431 2.382-7.562 1.013-1.132 2.978-1.727 5.895-1.727h5.36l-2.918 18.221zm82.175-23.403c-1.787-1.667-5.479-2.501-11.017-2.501-4.108 0-7.741.298-10.897.893-.536.119-.893.417-.953.953l-.774 4.764c-.119.655.119 1.012.715 1.012H7.201c3.871 0 5.419 1.251 4.943 4.109l-.357 2.144H4.224c-4.228 0-7.443.655-9.587 2.024-2.084 1.37-3.454 3.93-4.109 7.742-.715 4.585-.119 7.264 2.203 8.694 2.382 1.369 4.883 1.607 9.885 1.607 5.36 0 9.945-.416 13.756-1.25.893-.298 1.429-.953 1.608-1.846l3.275-20.604c.536-3.513-.06-6.074-1.846-7.741m-9.528 23.701c-1.548.417-3.573.596-6.074.596-3.811 0-4.942-.834-4.466-3.633.417-2.56 1.667-3.573 4.704-3.573h6.908l-1.072 6.61zm39.54-25.427c-2.918-.536-6.015-.774-9.29-.774-8.992 0-13.994 2.441-14.946 8.575l-.179 1.131c-.715 4.645.834 7.682 4.704 9.052l6.848 2.62c2.382.893 3.037 1.608 2.859 2.798l-.06.536c-.238 1.608-1.25 2.025-4.407 2.025H22.684c-.655 0-1.013.298-1.072.893l-.834 4.824c-.059.655.119.893.893.893 3.752.417 7.801.595 12.208.595 8.277 0 13.041-2.203 14.053-8.694l.119-.952c.715-4.467-.298-7.265-4.823-8.933l-7.206-2.679c-1.727-.715-2.56-1.608-2.382-2.739l.06-.596c.298-1.429 1.548-2.144 3.871-2.144h10.778c.655 0 1.012-.297 1.131-.952l.715-4.526c.119-.477-.119-.775-.774-.953m-56.928-13.22h-7.026c-.596 0-.953.297-1.013.893l-7.026 44.244c-.06.655.238.953.774.953h7.026c.596 0 .953-.298 1.072-.953l6.967-44.244c.06-.595-.178-.893-.774-.893m-15.482 13.22c-2.918-.536-6.014-.774-9.289-.774-8.992 0-13.994 2.441-14.947 8.575l-.178 1.131c-.715 4.645.833 7.682 4.704 9.052l6.848 2.62c2.382.893 3.037 1.608 2.858 2.798l-.059.536c-.238 1.608-1.251 2.025-4.407 2.025h-12.267c-.655 0-1.012.298-1.072.893l-.833 4.824c-.06.655.119.893.893.893 3.752.417 7.801.595 12.207.595 8.277 0 13.041-2.203 14.054-8.694l.119-.952c.714-4.467-.298-7.265-4.824-8.933l-7.205-2.679c-1.727-.715-2.561-1.608-2.382-2.739l.06-.596c.297-1.429 1.548-2.144 3.87-2.144h10.778c.656 0 1.013-.297 1.132-.952l.714-4.526c.12-.477-.119-.775-.774-.953"></path><path d="M-240.597 271.824c.216-.105.383-.717.135-.948-.371-.344-2.727-2.362-4.39-3.784.443-2.55.877-4.758 1.297-6.615.784-3.201 2.184-3.761 6.585-3.761h5.283c.88 0 1.388-.4 1.524-1.201l1.154-5.042c.216-.8-.07-1.281-.78-1.441-2.848-.48-5.392-.72-7.713-.72-3.602 0-5.78.24-8.99 1.521-3.051 1.28-5.259 4.242-6.292 8.723-1.165 5.203-2.434 13.046-3.801 23.451-1.289 10.404-2.552 18.168-3.795 23.37-.785 3.201-2.259 3.682-6.501 3.682h-5.282c-.881 0-1.389.4-1.605 1.2l-1.072 5.042c-.296.801-.01 1.281.779 1.441 2.367.48 4.912.72 7.633.72 3.602 0 5.859-.24 8.91-1.52 3.211-1.281 5.42-4.242 6.453-8.724 1.249-5.282 2.519-13.126 3.801-23.45.35-2.834.699-5.465 1.045-7.907 1.985-1.466 5.216-3.838 5.622-4.037"></path><path d="M-268.535 296.918h.76c.304 0 .487-.234.547-.702l.73-7.159c.031-.374-.06-.655-.273-.842l-6.569-4.211 7.42-4.21c.274-.188.426-.468.456-.843l.73-7.158c.061-.468-.061-.702-.365-.702h-.76a.97.97 0 0 0-.608.187l-15.085 9.404c-.212.141-.364.422-.425.796l-.517 5.053c-.031.374.061.655.273.795l13.138 9.405c.152.14.335.187.548.187m374.921-16.237l-13.138-9.404a.866.866 0 0 0-.548-.187h-.76c-.304 0-.487.234-.547.702l-.73 7.158c-.031.375.061.655.273.843l6.569 4.21-7.42 4.211c-.274.187-.426.468-.456.842l-.73 7.159c-.061.468.061.702.365.702h.76c.183 0 .395-.047.608-.187l15.085-9.405c.212-.14.364-.421.395-.795l.517-5.053c.061-.373-.03-.654-.243-.796"></path></g><g fill="#FFF"><path d="M-121.8 263.951c-4.109 0-7.741.298-10.897.893-.536.119-.894.417-.953.953l-.774 4.764c-.119.655.119 1.012.714 1.012h10.719c3.871 0 5.419 1.251 4.942 4.109l-.357 2.144h-7.562c-4.228 0-7.444.655-9.588 2.024-2.084 1.37-3.453 3.93-4.109 7.742-.714 4.585-.119 7.264 2.204 8.694 2.382 1.369 4.883 1.607 9.885 1.607 5.359 0 9.944-.416 13.755-1.25.894-.298 1.429-.953 1.608-1.846l3.275-20.604c.536-3.513-.059-6.074-1.846-7.741-1.786-1.668-5.478-2.501-11.016-2.501m1.489 26.2c-1.549.417-3.573.596-6.074.596-3.811 0-4.943-.834-4.466-3.633.416-2.56 1.667-3.573 4.704-3.573h6.907l-1.071 6.61zm-68.064-25.546c-1.846-.417-4.466-.655-7.801-.655-3.156 0-5.18.238-7.562 1.37-2.382 1.012-3.99 3.453-4.526 7.026l-3.87 24.296c-.12.655.119.953.714.953h7.086c.655 0 .953-.298 1.013-.953l3.513-22.033c.417-2.441 1.489-3.037 4.645-3.037h5.597c.655 0 1.072-.298 1.191-.893l.774-4.883c.06-.594-.178-1.012-.774-1.191m-26.974 1.37c-2.144-1.43-5.121-2.025-10.302-2.025-6.193 0-10.48 1.131-12.803 3.394-2.322 2.204-4.049 6.729-5.121 13.577s-.774 11.374.834 13.637c1.608 2.203 5.538 3.334 11.671 3.334 6.372 0 9.945-.774 12.743-3.394 2.799-2.68 4.05-6.491 5.181-13.577 1.191-8.217 1.072-12.504-2.203-14.946m-6.67 14.947c-.595 3.811-1.369 6.312-2.381 7.563-.953 1.191-2.799 1.786-5.479 1.786s-4.287-.595-4.883-1.846c-.595-1.25-.595-3.751.06-7.503.595-3.811 1.369-6.312 2.322-7.503 1.012-1.25 2.799-1.846 5.478-1.846 2.68 0 4.347.655 4.943 1.906.595 1.25.595 3.692-.06 7.443m137.555-10.242l.774-4.883c.06-.595-.178-1.012-.774-1.191-1.846-.417-4.466-.655-7.801-.655-3.156 0-5.18.238-7.562 1.37-2.382 1.012-3.99 3.453-4.526 7.026l-3.87 24.296c-.12.655.119.953.714.953h7.086c.655 0 .953-.298 1.013-.953l3.513-22.033c.417-2.441 1.489-3.037 4.645-3.037h5.597c.655 0 1.072-.298 1.191-.893m-51.688-6.431h-7.562c-.357 0-.655.297-.834.833l-7.92 24.296c-.297.774-.714 1.131-1.191 1.131-.655 0-.714-.119-.774-1.131l-1.846-23.283c-.059-.536-.298-.834-.774-.834h-6.967c-.536 0-.893.298-1.072.834l-9.23 23.283c-.417 1.012-.595 1.131-1.131 1.131s-.774-.178-.774-1.131l-.239-24.296c-.059-.536-.238-.833-.595-.833h-7.563c-.536 0-.833.297-.833.833l.833 26.857c.12 2.56.655 4.227 1.549 4.942.952.655 2.858 1.012 5.716 1.012 7.265-.357 7.206-.357 9.707-5.954l4.942-13.22.834 13.22c.178 2.858.297 3.989 1.488 4.942 1.191.953 2.68 1.012 6.313 1.012 2.858 0 4.882-.357 6.014-1.072 1.191-.714 2.203-2.322 3.096-4.882l9.409-26.857c.179-.536-.06-.833-.596-.833m203.354-.298c-2.441 0-4.525.119-6.371.298l1.846-11.791c.059-.655-.179-.952-.775-.952h-7.026c-.596 0-.953.297-1.012.952l-7.027 44.185c-.06.655.179.953.714.953h7.146c.655 0 .953-.298 1.013-.953l3.989-25.07h5.36c5.478 0 6.371.477 5.002 8.932L67.5 296.643c-.06.655.179.953.715.953h7.086c.595 0 .953-.298 1.072-.953l2.917-18.4c1.847-12.148-.714-14.292-12.088-14.292m-118.915-12.445h-7.086c-.536 0-.893.297-1.012.952l-1.846 11.85c-2.204-.238-4.645-.357-7.325-.357-5.359 0-9.17 1.191-11.433 3.573-2.203 2.322-3.87 6.848-4.883 13.458-2.084 13.398.179 16.852 12.743 16.911 3.99 0 8.456-.357 13.339-1.131.834-.119 1.31-.596 1.429-1.489l6.848-42.815c.06-.655-.238-.952-.774-.952m-14.053 38.348c-1.667.298-3.573.417-5.717.417-2.858 0-4.585-.655-5.18-2.024-.596-1.37-.536-3.812.178-7.325.655-3.93 1.429-6.431 2.382-7.562 1.013-1.132 2.978-1.727 5.895-1.727h5.36l-2.918 18.221zm82.175-23.402c-1.787-1.667-5.479-2.501-11.017-2.501-4.108 0-7.741.298-10.897.893-.536.119-.893.417-.953.953l-.774 4.764c-.119.655.119 1.012.715 1.012H4.201c3.871 0 5.419 1.251 4.943 4.109l-.357 2.144H1.224c-4.228 0-7.443.655-9.587 2.024-2.084 1.37-3.454 3.93-4.109 7.742-.715 4.585-.119 7.264 2.203 8.694 2.382 1.369 4.883 1.607 9.885 1.607 5.36 0 9.945-.416 13.756-1.25.893-.298 1.429-.953 1.608-1.846l3.275-20.604c.536-3.513-.06-6.075-1.846-7.741m-9.528 23.699c-1.548.417-3.573.596-6.074.596-3.811 0-4.942-.834-4.466-3.633.417-2.56 1.667-3.573 4.704-3.573h6.908l-1.072 6.61zm39.54-25.427c-2.918-.536-6.015-.774-9.29-.774-8.992 0-13.994 2.441-14.946 8.575l-.179 1.131c-.715 4.645.834 7.682 4.704 9.052l6.848 2.62c2.382.893 3.037 1.608 2.859 2.798l-.06.536c-.238 1.608-1.25 2.025-4.407 2.025H19.684c-.655 0-1.013.298-1.072.893l-.834 4.824c-.059.655.119.893.893.893 3.752.417 7.801.595 12.208.595 8.277 0 13.041-2.203 14.053-8.694l.119-.952c.715-4.467-.298-7.265-4.823-8.933l-7.206-2.679c-1.727-.715-2.56-1.608-2.382-2.739l.06-.596c.298-1.429 1.548-2.144 3.871-2.144h10.778c.655 0 1.012-.297 1.131-.952l.715-4.526c.119-.475-.119-.773-.774-.953m-56.928-13.218h-7.026c-.596 0-.953.297-1.013.893l-7.026 44.244c-.06.655.238.953.774.953h7.026c.596 0 .953-.298 1.072-.953l6.967-44.244c.06-.596-.178-.893-.774-.893m-15.482 13.218c-2.918-.536-6.014-.774-9.289-.774-8.992 0-13.994 2.441-14.947 8.575l-.178 1.131c-.715 4.645.833 7.682 4.704 9.052l6.848 2.62c2.382.893 3.037 1.608 2.858 2.798l-.059.536c-.238 1.608-1.251 2.025-4.407 2.025h-12.267c-.655 0-1.012.298-1.072.893l-.833 4.824c-.06.655.119.893.893.893 3.752.417 7.801.595 12.207.595 8.277 0 13.041-2.203 14.054-8.694l.119-.952c.714-4.467-.298-7.265-4.824-8.933l-7.205-2.679c-1.727-.715-2.561-1.608-2.382-2.739l.06-.596c.297-1.429 1.548-2.144 3.87-2.144h10.778c.656 0 1.013-.297 1.132-.952l.714-4.526c.12-.475-.119-.773-.774-.953"></path><path d="M-243.597 268.9c.216-.105.383-.717.135-.948-.371-.344-2.727-2.362-4.39-3.784.443-2.55.877-4.758 1.297-6.615.784-3.201 2.184-3.761 6.585-3.761h5.283c.88 0 1.388-.4 1.524-1.201l1.154-5.042c.216-.8-.07-1.281-.78-1.441-2.848-.48-5.392-.72-7.713-.72-3.602 0-5.78.24-8.99 1.521-3.051 1.28-5.259 4.242-6.292 8.723-1.165 5.203-2.434 13.046-3.801 23.451-1.289 10.404-2.552 18.168-3.795 23.37-.785 3.201-2.259 3.682-6.501 3.682h-5.282c-.881 0-1.389.4-1.605 1.2l-1.072 5.042c-.296.801-.01 1.281.779 1.441 2.367.48 4.912.72 7.633.72 3.602 0 5.859-.24 8.91-1.52 3.211-1.281 5.42-4.242 6.453-8.724 1.249-5.282 2.519-13.126 3.801-23.45.35-2.834.699-5.465 1.045-7.907 1.985-1.467 5.216-3.839 5.622-4.037"></path><path d="M-271.535 293.992h.76c.304 0 .487-.234.547-.702l.73-7.159c.031-.374-.06-.655-.273-.842l-6.569-4.211 7.42-4.21c.274-.188.426-.468.456-.843l.73-7.158c.061-.468-.061-.702-.365-.702h-.76a.97.97 0 0 0-.608.187l-15.085 9.404c-.212.141-.364.422-.425.796l-.517 5.053c-.031.374.061.655.273.795l13.138 9.405c.152.14.335.187.548.187m374.921-16.235l-13.138-9.404a.866.866 0 0 0-.548-.187h-.76c-.304 0-.487.234-.547.702l-.73 7.158c-.031.375.061.655.273.843l6.569 4.21-7.42 4.211c-.274.187-.426.468-.456.842l-.73 7.159c-.061.468.061.702.365.702h.76c.183 0 .395-.047.608-.187l15.085-9.405c.212-.14.364-.421.395-.795l.517-5.053c.061-.375-.03-.656-.243-.796"></path></g></svg>